<svg width="28" height="28" viewBox="0 0 28 28" fill="none" xmlns="http://www.w3.org/2000/svg">
<circle cx="14" cy="14" r="14" fill="#326E39"/>
<path d="M18.4482 21H10.0635V19.8311L14.4932 14.9092C15.1494 14.165 15.6006 13.5615 15.8467 13.0986C16.0986 12.6299 16.2246 12.1465 16.2246 11.6484C16.2246 10.9805 16.0225 10.4326 15.6182 10.0049C15.2139 9.57715 14.6748 9.36328 14.001 9.36328C13.1924 9.36328 12.5625 9.59473 12.1113 10.0576C11.666 10.5146 11.4434 11.1533 11.4434 11.9736H9.81738C9.81738 10.7959 10.1953 9.84375 10.9512 9.11719C11.7129 8.39062 12.7295 8.02734 14.001 8.02734C15.1904 8.02734 16.1309 8.34082 16.8223 8.96777C17.5137 9.58887 17.8594 10.418 17.8594 11.4551C17.8594 12.7148 17.0566 14.2148 15.4512 15.9551L12.0234 19.6729H18.4482V21Z" fill="white"/>
</svg>
