<svg width="28" height="28" viewBox="0 0 28 28" fill="none" xmlns="http://www.w3.org/2000/svg">
<circle cx="14" cy="14" r="14" fill="#326E39"/>
<path d="M12.4278 13.8105H13.6495C14.4171 13.7988 15.0206 13.5967 15.46 13.2041C15.8995 12.8115 16.1192 12.2812 16.1192 11.6133C16.1192 10.1133 15.3721 9.36328 13.878 9.36328C13.1749 9.36328 12.6124 9.56543 12.1905 9.96973C11.7745 10.3682 11.5665 10.8984 11.5665 11.5605H9.94049C9.94049 10.5469 10.3096 9.70605 11.0479 9.03809C11.7921 8.36426 12.7354 8.02734 13.878 8.02734C15.085 8.02734 16.0313 8.34668 16.7169 8.98535C17.4024 9.62402 17.7452 10.5117 17.7452 11.6484C17.7452 12.2051 17.5635 12.7441 17.2003 13.2656C16.8428 13.7871 16.3536 14.1768 15.7325 14.4346C16.4356 14.6572 16.9776 15.0264 17.3585 15.542C17.7452 16.0576 17.9385 16.6875 17.9385 17.4316C17.9385 18.5801 17.5635 19.4912 16.8135 20.165C16.0635 20.8389 15.088 21.1758 13.8868 21.1758C12.6856 21.1758 11.7071 20.8506 10.9512 20.2002C10.2012 19.5498 9.82623 18.6914 9.82623 17.625H11.461C11.461 18.2988 11.6807 18.8379 12.1202 19.2422C12.5596 19.6465 13.1485 19.8486 13.8868 19.8486C14.6719 19.8486 15.2725 19.6436 15.6885 19.2334C16.1046 18.8232 16.3126 18.2344 16.3126 17.4668C16.3126 16.7227 16.084 16.1514 15.627 15.7529C15.17 15.3545 14.5108 15.1494 13.6495 15.1377H12.4278V13.8105Z" fill="white"/>
</svg>
