<svg width="52" height="52" viewBox="0 0 52 52" fill="none" xmlns="http://www.w3.org/2000/svg">
<circle cx="25.6515" cy="25.6515" r="25.6515" fill="#7DC1E8"/>
<path d="M35.9897 19.525H35.9886H20.9411L21.6236 25.3291L11.5993 19.54L11.0567 16.4275L7 21.7381L10.121 21.4882L22.3531 31.5306L22.7109 34.5726H34.8073L35.0519 31.475C35.3563 31.5221 35.6703 31.5477 35.9897 31.5477C39.304 31.5477 42 28.8517 42 25.5363C42 22.2231 39.3041 19.525 35.9897 19.525ZM35.9897 29.5567C35.7216 29.5567 35.461 29.529 35.2089 29.4787L35.8327 21.5245C35.885 21.5224 35.9352 21.5171 35.9897 21.5171C38.2061 21.5171 40.009 23.3189 40.009 25.5364C40.009 27.7527 38.2061 29.5567 35.9897 29.5567Z" fill="black"/>
</svg>
