<svg width="52" height="52" viewBox="0 0 52 52" fill="none" xmlns="http://www.w3.org/2000/svg">
<circle cx="25.6515" cy="25.6515" r="25.6515" fill="#D09468"/>
<path d="M35.7539 26.9786C34.8127 25.802 33.8075 24.7889 33.8075 24.7889C33.5313 24.4791 33.1397 24.296 32.7251 24.2841C32.3096 24.2718 31.9077 24.4309 31.6142 24.7244L29.9518 26.3876C29.6769 26.6617 29.2314 26.6617 28.9572 26.3876L27.9749 25.4056C27.8574 25.2877 27.6667 25.2877 27.5484 25.4056L25.4054 27.549C25.2879 27.6666 25.2875 27.8577 25.4054 27.9755L26.3873 28.9574C26.6614 29.232 26.6614 29.677 26.3873 29.952L24.7241 31.6148C24.431 31.9083 24.2708 32.3098 24.283 32.7252C24.2952 33.1402 24.4784 33.5318 24.789 33.8076C24.789 33.8076 25.8018 34.8124 26.9783 35.754C29.4853 37.7598 33.3722 39.1388 36.6941 36.694C39.1387 33.3721 37.7592 29.486 35.7539 26.9786Z" fill="black"/>
<path d="M26.5259 24.6452L21.7026 19.8219L22.101 17.6793C22.251 16.8746 21.9946 16.0485 21.4158 15.4694L20.3283 14.3818C20.2029 14.2561 20.0541 14.1591 19.8971 14.0954C19.6605 13.9997 19.4053 13.9763 19.1597 14.0238C18.9148 14.0705 18.675 14.1928 18.4871 14.3815L14.3811 18.4871C14.2556 18.6121 14.1587 18.7609 14.0954 18.9184C13.9997 19.1549 13.9763 19.4097 14.0238 19.6554C14.0705 19.9007 14.1928 20.14 14.3815 20.3283L15.469 21.4163C16.0482 21.9946 16.8746 22.2509 17.6797 22.1014L19.8219 21.7026L24.6452 26.5259L26.5259 24.6452ZM20.1839 17.3224L19.7349 19.7349L17.3225 20.1843C17.1496 20.2167 16.9723 20.1613 16.8481 20.0371L16.2187 19.4073L19.4073 16.2187L20.0371 16.8485C20.1609 16.9727 20.2163 17.15 20.1839 17.3224Z" fill="black"/>
</svg>
