<svg width="33" height="27" viewBox="0 0 33 27" fill="none" xmlns="http://www.w3.org/2000/svg">
<path d="M18.8571 0C11.0471 0 4.71429 6.045 4.71429 13.5H0L6.11286 19.335L6.22286 19.545L12.5714 13.5H7.85714C7.85714 7.695 12.7757 3 18.8571 3C24.9386 3 29.8571 7.695 29.8571 13.5C29.8571 19.305 24.9386 24 18.8571 24C15.8243 24 13.0743 22.815 11.0943 20.91L8.86286 23.04C11.4243 25.485 14.9443 27 18.8571 27C26.6671 27 33 20.955 33 13.5C33 6.045 26.6671 0 18.8571 0ZM17.2857 7.5V15L24.0114 18.81L25.1429 16.995L19.6429 13.875V7.5H17.2857Z" fill="#326E39"/>
</svg>
