<svg width="30" height="29" viewBox="0 0 30 29" fill="none" xmlns="http://www.w3.org/2000/svg">
<path d="M13.5 23.2H16.5V20.3H13.5V23.2ZM15 0C6.72 0 0 6.496 0 14.5C0 22.504 6.72 29 15 29C23.28 29 30 22.504 30 14.5C30 6.496 23.28 0 15 0ZM15 26.1C8.385 26.1 3 20.8945 3 14.5C3 8.1055 8.385 2.9 15 2.9C21.615 2.9 27 8.1055 27 14.5C27 20.8945 21.615 26.1 15 26.1ZM15 5.8C11.685 5.8 9 8.3955 9 11.6H12C12 10.005 13.35 8.7 15 8.7C16.65 8.7 18 10.005 18 11.6C18 14.5 13.5 14.1375 13.5 18.85H16.5C16.5 15.5875 21 15.225 21 11.6C21 8.3955 18.315 5.8 15 5.8Z" fill="#326E39"/>
</svg>
