<svg width="26" height="31" viewBox="0 0 26 31" fill="none" xmlns="http://www.w3.org/2000/svg">
<path d="M13 31C20.1789 31 26 25.051 26 17.7143C18.8211 17.7143 13 23.6633 13 31ZM3.75556 13.6548C3.75556 15.6919 5.37333 17.3452 7.36667 17.3452C8.13222 17.3452 8.82556 17.109 9.41778 16.6957L9.38889 16.9762C9.38889 19.0133 11.0067 20.6667 13 20.6667C14.9933 20.6667 16.6111 19.0133 16.6111 16.9762L16.5822 16.6957C17.16 17.109 17.8678 17.3452 18.6333 17.3452C20.6267 17.3452 22.2444 15.6919 22.2444 13.6548C22.2444 12.1786 21.3922 10.9238 20.1789 10.3333C21.3922 9.74286 22.2444 8.4881 22.2444 7.0119C22.2444 4.97476 20.6267 3.32143 18.6333 3.32143C17.8678 3.32143 17.1744 3.55762 16.5822 3.97095L16.6111 3.69048C16.6111 1.65333 14.9933 0 13 0C11.0067 0 9.38889 1.65333 9.38889 3.69048L9.41778 3.97095C8.84 3.55762 8.13222 3.32143 7.36667 3.32143C5.37333 3.32143 3.75556 4.97476 3.75556 7.0119C3.75556 8.4881 4.60778 9.74286 5.82111 10.3333C4.60778 10.9238 3.75556 12.1786 3.75556 13.6548ZM13 6.64286C14.9933 6.64286 16.6111 8.29619 16.6111 10.3333C16.6111 12.3705 14.9933 14.0238 13 14.0238C11.0067 14.0238 9.38889 12.3705 9.38889 10.3333C9.38889 8.29619 11.0067 6.64286 13 6.64286ZM0 17.7143C0 25.051 5.82111 31 13 31C13 23.6633 7.17889 17.7143 0 17.7143Z" fill="#326E39"/>
</svg>
